<svg width="20" height="20" viewBox="0 0 20 20" fill="none" xmlns="http://www.w3.org/2000/svg">
<path d="M14.294 16.8721H8.24077C5.65655 16.8721 3.55412 14.7696 3.55412 12.1854V7.3816C3.55412 4.9793 2.35676 2.75568 0.351225 1.43334C-0.00894369 1.19588 -0.108379 0.711439 0.129078 0.35127C0.366535 -0.00893829 0.850939 -0.108412 1.21119 0.129123C2.35606 0.883986 3.28487 1.87959 3.94905 3.02586C4.09258 3.18665 5.24995 4.41338 7.14726 4.41338H16.142C18.596 4.36749 20.5168 6.83021 19.8752 9.19892L18.8397 13.3259C18.3159 15.4138 16.4466 16.8721 14.294 16.8721ZM4.91926 5.53431C5.04912 6.13424 5.11634 6.75284 5.11634 7.3816V12.1854C5.11634 13.9082 6.51796 15.3098 8.24077 15.3098H14.294C15.7291 15.3098 16.9752 14.3377 17.3245 12.9457L18.3599 8.81876C18.7412 7.41128 17.5997 5.94838 16.142 5.9756H7.14722C6.28913 5.9756 5.54224 5.7906 4.91926 5.53431ZM7.85021 19.0201C7.85021 18.4809 7.41307 18.0437 6.87383 18.0437C5.57828 18.0953 5.57942 19.9454 6.87383 19.9965C7.41307 19.9965 7.85021 19.5593 7.85021 19.0201ZM15.6222 19.0201C15.6222 18.4809 15.1851 18.0437 14.6459 18.0437C13.3503 18.0953 13.3514 19.9454 14.6459 19.9965C15.1851 19.9965 15.6222 19.5593 15.6222 19.0201ZM16.9231 8.31893C16.9231 7.88752 16.5734 7.53782 16.142 7.53782H7.45966C6.42329 7.57906 6.42407 9.05914 7.45966 9.10003H16.142C16.5734 9.10003 16.9231 8.75033 16.9231 8.31893Z" fill="#46A358"/>
</svg>
